<svg width="393" height="390" viewBox="0 0 393 390" fill="none" xmlns="http://www.w3.org/2000/svg">
<path d="M91.9248 267.506L226.887 119.908" stroke="#4629B1" stroke-width="3"/>
<path d="M85.1403 127.487L235.071 259.853" stroke="#4629B1" stroke-width="3"/>
<path d="M92.4844 270.387L17.968 180.186" stroke="#4629B1" stroke-width="3"/>
<path d="M146.05 334.444L235.481 260.564" stroke="#4629B1" stroke-width="3"/>
<path d="M83.4319 126.754L172.091 53.5113" stroke="#4629B1" stroke-width="3"/>
<path d="M323.102 235.523L275.017 177.316L226.931 119.109" stroke="#4629B1" stroke-width="3"/>
<path d="M19.2671 180.372L323.152 236.362" stroke="#4629B1" stroke-width="3"/>
<path d="M172.962 53.3753L146.23 334.105" stroke="#4629B1" stroke-width="3"/>
<path d="M225.955 119.499L320.853 234.37L180.37 210.339L158.548 193.344L225.955 119.499Z" fill="#889DEF" stroke="white"/>
<path d="M172.272 52.9451L82.8384 126.827L159.453 191.299L172.272 52.9451Z" fill="#80F480" stroke="white"/>
<path d="M149.665 204.574L90.6376 268.26L18.6658 181.138L149.665 204.574Z" fill="#9E8B8B" stroke="white"/>
<path d="M145.075 334.833L158.045 206.082L176.85 210.003L235.662 259.998L145.075 334.833Z" fill="#EC3737" stroke="white"/>
<path d="M158.095 194.367L149.226 204.334L158.431 205.763L158.095 194.367Z" fill="#513939" stroke="white"/>
<path d="M158.749 206.149L179.28 210.59L158.799 194.434L158.749 206.149Z" fill="#D9D9D9" stroke="white"/>
</svg>
